<svg width="341" height="109" viewBox="0 0 341 109" fill="none" xmlns="http://www.w3.org/2000/svg">
<path d="M47.1678 30.7241V46.5336H0.332352V30.7241H47.1678ZM11.0531 106.609V25.2402C11.0531 19.7399 12.1235 15.1782 14.2644 11.5552C16.4382 7.9322 19.4025 5.21495 23.1572 3.40345C26.912 1.59196 31.1772 0.686209 35.953 0.686209C39.1807 0.686209 42.1285 0.933233 44.7964 1.42728C47.4971 1.92133 49.5063 2.36596 50.8237 2.7612L47.069 18.5706C46.2456 18.3071 45.2245 18.0601 44.0059 17.8296C42.8202 17.599 41.6015 17.4837 40.35 17.4837C37.2539 17.4837 35.0966 18.2083 33.878 19.6575C32.6593 21.0738 32.05 23.0664 32.05 25.6355V106.609H11.0531ZM78.9472 108.042C74.1056 108.042 69.7909 107.202 66.0032 105.522C62.2156 103.81 59.2184 101.29 57.0116 97.9636C54.8378 94.6041 53.7509 90.4212 53.7509 85.4149C53.7509 81.199 54.5249 77.6584 56.0729 74.7929C57.6209 71.9274 59.7289 69.6219 62.3967 67.8763C65.0645 66.1307 68.0947 64.8132 71.4871 63.9239C74.9125 63.0346 78.5026 62.4089 82.2573 62.0466C86.6708 61.5854 90.2279 61.1573 92.9287 60.762C95.6294 60.3339 97.5891 59.7081 98.8078 58.8847C100.026 58.0613 100.636 56.8426 100.636 55.2287V54.9323C100.636 51.8034 99.6477 49.3825 97.6715 47.6699C95.7282 45.9572 92.9616 45.1008 89.3715 45.1008C85.5839 45.1008 82.5702 45.9407 80.3305 47.6205C78.0909 49.2673 76.6087 51.3423 75.8841 53.8454L56.4188 52.2645C57.4069 47.6534 59.3501 43.6681 62.2485 40.3086C65.1469 36.9161 68.8852 34.3142 73.4633 32.5027C78.0744 30.6583 83.4101 29.736 89.4703 29.736C93.6862 29.736 97.7209 30.2301 101.574 31.2182C105.461 32.2063 108.903 33.7378 111.9 35.8128C114.93 37.8878 117.318 40.5556 119.064 43.8163C120.809 47.0441 121.682 50.9141 121.682 55.4264V106.609H101.723V96.0862H101.13C99.9112 98.4576 98.2808 100.549 96.2388 102.361C94.1967 104.139 91.743 105.539 88.8775 106.56C86.012 107.548 82.7019 108.042 78.9472 108.042ZM84.9745 93.5172C88.0706 93.5172 90.8043 92.9079 93.1757 91.6892C95.5471 90.4376 97.408 88.7579 98.7584 86.65C100.109 84.542 100.784 82.1542 100.784 79.4863V71.4334C100.125 71.8616 99.2195 72.2568 98.0667 72.6191C96.9469 72.9485 95.6788 73.2614 94.2626 73.5578C92.8463 73.8213 91.4301 74.0683 90.0138 74.2989C88.5975 74.4965 87.313 74.6776 86.1602 74.8423C83.69 75.2046 81.5327 75.781 79.6883 76.5715C77.8438 77.3619 76.4111 78.4324 75.3901 79.7828C74.3691 81.1002 73.8585 82.747 73.8585 84.7232C73.8585 87.5887 74.896 89.7789 76.971 91.294C79.0789 92.7761 81.7468 93.5172 84.9745 93.5172ZM201.149 52.3633L181.881 53.549C181.552 51.9022 180.844 50.42 179.757 49.1026C178.67 47.7522 177.237 46.6818 175.459 45.8913C173.713 45.0679 171.622 44.6562 169.184 44.6562C165.924 44.6562 163.174 45.3478 160.934 46.7312C158.694 48.0816 157.574 49.8931 157.574 52.1657C157.574 53.9772 158.299 55.5087 159.748 56.7603C161.197 58.0119 163.684 59.0164 167.208 59.7739L180.943 62.5406C188.32 64.0557 193.821 66.493 197.444 69.8525C201.067 73.212 202.878 77.6254 202.878 83.0929C202.878 88.0662 201.413 92.4303 198.481 96.185C195.583 99.9398 191.598 102.871 186.525 104.979C181.486 107.054 175.673 108.092 169.086 108.092C159.04 108.092 151.037 106 145.075 101.817C139.147 97.6013 135.672 91.8704 134.651 84.6244L155.351 83.5375C155.977 86.6006 157.492 88.939 159.896 90.5529C162.301 92.1339 165.38 92.9243 169.135 92.9243C172.824 92.9243 175.788 92.2162 178.028 90.7999C180.3 89.3507 181.453 87.4898 181.486 85.2172C181.453 83.3069 180.646 81.7425 179.065 80.5238C177.484 79.2722 175.047 78.3171 171.753 77.6584L158.612 75.0399C151.201 73.5578 145.684 70.9888 142.061 67.3328C138.471 63.6769 136.676 59.0164 136.676 53.3514C136.676 48.4768 137.994 44.2774 140.629 40.7532C143.297 37.229 147.035 34.5118 151.843 32.6015C156.685 30.6912 162.35 29.736 168.839 29.736C178.423 29.736 185.966 31.7616 191.466 35.8128C196.999 39.8639 200.227 45.3808 201.149 52.3633ZM256.494 30.7241V46.5336H210.795V30.7241H256.494ZM221.17 12.5433H242.217V83.2905C242.217 85.2337 242.513 86.7488 243.106 87.8357C243.699 88.8896 244.522 89.6307 245.576 90.0589C246.663 90.4871 247.915 90.7011 249.331 90.7011C250.319 90.7011 251.307 90.6188 252.295 90.4541C253.283 90.2565 254.041 90.1083 254.568 90.0095L257.878 105.671C256.824 106 255.342 106.379 253.431 106.807C251.521 107.268 249.199 107.548 246.465 107.647C241.393 107.844 236.947 107.169 233.126 105.621C229.338 104.073 226.391 101.669 224.283 98.4082C222.175 95.1475 221.137 91.0305 221.17 86.0571V12.5433ZM291.251 62.7382V106.609H270.204V30.7241H290.262V44.1127H291.152C292.831 39.6993 295.648 36.208 299.6 33.639C303.552 31.037 308.344 29.736 313.977 29.736C319.246 29.736 323.841 30.8888 327.76 33.1943C331.68 35.4999 334.726 38.7935 336.9 43.0752C339.074 47.324 340.161 52.3962 340.161 58.2918V106.609H319.115V62.0466C319.148 57.4025 317.962 53.7795 315.558 51.1776C313.153 48.5427 309.843 47.2252 305.627 47.2252C302.795 47.2252 300.292 47.8345 298.118 49.0532C295.977 50.2718 294.297 52.0504 293.078 54.3889C291.893 56.6944 291.283 59.4775 291.251 62.7382Z" fill="#FFFE54"/>
</svg>
