<svg width="527" height="515" viewBox="0 0 527 515" fill="none" xmlns="http://www.w3.org/2000/svg">
<g opacity="0.8">
<path d="M519.528 382.639C556.255 515.726 420.204 529.273 322.021 489.088C264.735 468.421 227.115 532.693 156.149 507.043C85.1839 481.393 170.257 400.594 61.671 359.127C-46.9148 317.659 6.0958 132.122 101.002 129.985C195.907 127.847 169.83 96.6395 264.735 25.2464C359.641 -46.1466 519.527 53.0343 479.77 157.773C440.012 262.511 479.77 238.571 519.528 382.639Z" stroke="white" stroke-width="2"/>
<path d="M315.268 279.065C319.505 291.741 299.657 312.19 283.697 303.463C269.082 295.472 254.199 300.861 244.367 297.299C218.481 287.919 228.003 282.954 216.431 271.815C202.35 258.259 195.631 222.764 228.003 222.764C254.627 222.764 246.661 209.833 266.597 204.103C286.533 198.373 309.142 208.126 309.142 233.804C309.142 243.446 308.21 257.953 315.268 279.065Z" stroke="white" stroke-width="2"/>
<path d="M500.961 373.871C534.734 496.011 409.248 510.185 318.539 472.86C265.133 453.345 229.58 512.265 164.172 488.622C97.3044 464.451 175.509 390.547 75.7427 351.836C-24.2518 312.906 23.3289 141.01 112.55 139.066C201.248 137.123 176.817 107.577 264.907 42.1533C352.998 -23.2703 500.404 67.7807 464.261 165.332C428.117 261.425 464.176 240.98 500.961 373.871Z" stroke="white" stroke-width="2"/>
<path d="M482.395 365.101C513.214 476.295 398.292 491.096 315.058 456.631C265.531 438.269 232.045 491.835 172.194 470.2C109.425 447.509 180.761 380.498 89.8143 344.545C-1.58882 308.152 40.5619 149.896 124.098 148.147C206.589 146.398 183.804 118.513 265.079 59.0588C346.354 -0.395429 481.281 82.5258 448.752 172.889C416.222 260.338 448.582 243.388 482.395 365.101Z" stroke="white" stroke-width="2"/>
<path d="M463.828 356.33C491.694 456.578 387.335 472.007 311.576 440.401C265.928 423.191 234.509 471.405 180.216 451.778C121.545 430.565 186.013 370.449 103.886 337.253C21.074 303.397 57.7948 158.781 135.646 157.226C211.929 155.672 190.791 129.449 265.251 75.9638C339.71 22.479 462.157 97.2704 433.242 180.447C404.328 259.25 432.988 245.795 463.828 356.33Z" stroke="white" stroke-width="2"/>
<path d="M445.261 347.559C470.174 436.86 376.379 452.917 308.095 424.171C266.326 408.113 236.974 450.974 188.238 433.355C133.665 413.622 191.265 360.399 117.957 329.96C43.7368 298.642 75.0276 167.666 147.194 166.306C217.27 164.945 197.778 140.384 265.422 92.8682C333.066 45.3527 443.033 112.014 417.733 188.003C392.433 258.161 417.394 248.202 445.261 347.559Z" stroke="white" stroke-width="2"/>
<path d="M426.698 338.344C448.657 416.698 365.426 433.382 304.617 407.496C266.727 392.591 239.442 430.098 196.264 414.488C145.789 396.233 196.521 349.905 132.032 322.223C66.4032 293.442 92.264 176.106 158.745 174.94C222.614 173.774 204.768 150.874 265.597 109.328C326.426 67.7822 423.913 126.314 402.227 195.115C380.541 256.628 401.804 250.164 426.698 338.344Z" stroke="white" stroke-width="2"/>
<path d="M408.131 328.603C427.136 396.011 354.469 413.323 301.134 390.296C267.124 376.543 241.906 408.698 204.285 395.095C157.909 378.32 201.772 338.885 146.103 313.96C89.0653 287.717 109.496 184.021 170.292 183.05C227.953 182.078 211.755 160.839 265.768 125.263C319.781 89.6862 404.789 140.088 386.718 201.702C368.646 254.57 386.209 251.601 408.131 328.603Z" stroke="white" stroke-width="2"/>
<path d="M389.563 318.834C405.615 375.296 343.511 393.235 297.652 373.069C267.52 360.468 244.369 387.269 212.306 375.675C170.028 360.379 207.023 327.838 160.173 305.67C111.727 281.965 126.728 191.909 181.839 191.132C233.293 190.354 218.741 170.777 265.939 141.17C313.137 111.563 385.665 153.835 371.207 208.262C356.75 252.485 370.614 253.011 389.563 318.834Z" stroke="white" stroke-width="2"/>
<path d="M370.994 309.022C384.092 354.537 332.553 373.104 294.168 355.797C267.916 344.349 246.832 365.797 220.327 356.211C182.147 342.394 212.273 316.747 174.243 297.336C134.388 276.168 143.959 199.752 193.385 199.169C238.632 198.586 225.726 180.671 266.108 157.033C306.491 133.395 366.539 167.538 355.696 214.777C344.853 250.355 355.018 254.376 370.994 309.022Z" stroke="white" stroke-width="2"/>
<path d="M352.42 299.147C362.565 333.716 321.589 352.91 290.679 338.464C268.306 328.167 249.289 344.263 228.342 336.684C194.26 324.347 217.518 305.594 188.308 288.94C157.044 270.31 161.185 207.534 204.926 207.145C243.965 206.757 232.706 190.503 266.273 172.834C299.84 155.166 347.409 181.178 340.18 221.23C332.951 248.163 339.417 255.68 352.42 299.147Z" stroke="white" stroke-width="2"/>
<path d="M333.852 289.179C341.043 312.801 310.631 332.623 287.196 321.036C268.702 311.892 251.752 322.635 236.362 317.064C206.378 306.205 222.768 294.347 202.377 280.45C179.705 264.357 178.416 215.221 216.472 215.027C249.303 214.833 239.691 200.24 266.442 188.541C293.194 176.842 328.283 194.725 324.669 227.59C321.054 245.877 323.821 256.889 333.852 289.179Z" stroke="white" stroke-width="2"/>
</g>
</svg>
